<?xml version="1.0" encoding="utf-8"?>
<!-- Generator: Adobe Illustrator 25.0.1, SVG Export Plug-In . SVG Version: 6.00 Build 0)  -->
<svg version="1.1" id="Layer_1" xmlns="http://www.w3.org/2000/svg" xmlns:xlink="http://www.w3.org/1999/xlink" x="0px" y="0px"
	 viewBox="0 0 1024.4 322.5" style="enable-background:new 0 0 1024.4 322.5;" xml:space="preserve">
<style type="text/css">
	.st0{fill:#ffffff;}
</style>
<g>
	<g>
		<path class="st0" d="M0,0v322.5h322.5V0H0z M92,46.4h138.1v46l-46,46v-46H46L92,46.4z M138.1,276.5H92V138.4h46v92h46L138.1,276.5
			z M276.1,230.4l-46,46v-92h-46l46-46h46.2L276.1,230.4z"/>
		<g>
			<path class="st0" d="M545.6,130.8l-5.8-4L508,47.9l0,0l-3.2,0l0,0.1L473,126.7l-4.9,4.1h16.3l-3.7-4.1l7.6-18.7h30.8l7.7,19
				l-2.4,3.8H545.6z M490.5,102.5l13.2-32.7l13.2,32.7H490.5z"/>
			<path class="st0" d="M418.3,130.3c23.4,2.6,35.7-5,35.7-5V97.4l6.8-8.3H454v0h-13.2v34.8c-33.6,8.2-48.5-18.3-48.5-35.5
				s2.9-36.9,31.2-36.9c28.3,0,27.1,18.8,27.1,18.8h3.5V49.6c-60.3-12.5-76.7,14-76.7,38.9C377.3,113.4,394.9,127.7,418.3,130.3z"/>
			<path class="st0" d="M847.6,130.8l-5.8-4L810,47.9l0,0l-3.2,0l0,0.1L775,126.7l-4.9,4.1h16.3l-3.6-4.1l7.5-18.7h30.8l7.7,19
				l-2.4,3.8H847.6z M792.5,102.5l13.2-32.7l13.2,32.7H792.5z"/>
			<polygon class="st0" points="564.6,127.4 571.2,76.1 597.8,130.8 599.8,130.8 626.8,75 634.1,127.1 631.7,130.8 634.6,130.8 
				648.1,130.8 653,130.8 647.5,127 635.4,47.9 632.5,47.9 602,110.5 571.5,47.9 568.6,47.9 556.3,126.7 556.3,126.7 551.4,130.8 
				567.6,130.8 			"/>
			<polygon class="st0" points="676.6,127.4 683.3,76.1 709.8,130.8 711.9,130.8 738.9,75 746.1,127.1 743.7,130.8 746.6,130.8 
				760.1,130.8 765.1,130.8 759.6,127 747.4,47.9 744.6,47.9 714.1,110.5 683.6,47.9 680.7,47.9 668.3,126.7 668.3,126.7 
				663.4,130.8 679.7,130.8 			"/>
			<path class="st0" d="M412.3,193.2h-26.7v0h-8.3l8.3,8.3v66.3l-8.3,8.3h8.3l0,0h13.6h0.1h8.2l-8.2-8.2v-68.6h13
				c10,0,20,5.8,20,21.2c0,15.4-10,23.5-20,23.5v3.1c12,0,32.9-6.5,32.9-26.9C445.1,191.8,424.2,193.2,412.3,193.2z"/>
			<path class="st0" d="M730.6,193.3l-16.5,0.1l-13.4,0v0h-4.6l4.6,4.7v73.3l-4.6,4.7h8.3v0h9.7h21.7c0,0,42.2,1.3,42.2-42.4
				C778,190.1,730.6,193.3,730.6,193.3z M721.5,272.4c-2.6,0-7.3,0-7.3,0v-74.1h6.5c0,0,42.8-2.4,42.8,37
				C763.5,274.8,737.8,272.4,721.5,272.4z"/>
			<path class="st0" d="M908.7,234.4h-13.2v34.8c-33.6,8.2-48.5-18.3-48.5-35.5c0-17.2,2.9-36.9,31.2-36.9s27.1,18.8,27.1,18.8h3.5
				v-20.8c-60.3-12.5-76.7,14-76.7,38.9c0,24.9,17.7,39.2,41,41.8c23.4,2.6,35.7-5,35.7-5v-27.9l6.7-8.3L908.7,234.4L908.7,234.4z"
				/>
			<polygon class="st0" points="818.6,193.1 791.3,193.1 798.3,200.2 798.3,268.7 791.3,276.1 818.6,276.1 811.6,268.6 811.6,200.2 
							"/>
			<path class="st0" d="M483.4,193.2L483.4,193.2h-3.2l0,0.1L448.4,272l-4.9,4.1h16.3l-3.6-4.1l7.5-18.7h30.8l7.7,19l-2.4,3.8h21.4
				l-5.8-4L483.4,193.2z M465.9,247.8l13.2-32.7l13.2,32.7H465.9z"/>
			<path class="st0" d="M649.1,193.2L649.1,193.2h-3.2l0,0.1L614.1,272l-4.9,4.1h16.3l-3.7-4.1l7.6-18.7h30.8l7.7,19l-2.4,3.8h21.4
				l-5.8-4L649.1,193.2z M631.6,247.8l13.2-32.7l13.2,32.7H631.6z"/>
			<polygon class="st0" points="1018.9,272.3 1006.8,193.2 1003.9,193.2 973.4,255.8 942.9,193.2 940,193.2 927.7,272 927.6,272 
				922.8,276.1 927,276.1 935.6,276.1 939,276.1 936,272.7 942.6,221.4 969.2,276.1 971.2,276.1 998.2,220.3 1005.5,272.4 
				1003.1,276.1 1006,276.1 1019.5,276.1 1024.4,276.1 			"/>
			<path class="st0" d="M592.3,215.8c0-18.5-13.5-22.6-29.2-22.6h-27.1v0h-8.3l7.8,7.8v71.1l-4.7,4h21.5l-3.7-4.1v-29.7l14.5,0.1
				l24,33.7l15.4,0.1l-26.1-34.3C583.9,238.7,592.3,232.9,592.3,215.8z M563.1,237.3l-14.5,0V233v-34.7h14.5c0,0,16.8,0,16.8,19.5
				C579.9,237.3,563.1,237.3,563.1,237.3z"/>
		</g>
	</g>
</g>
</svg>
