<?xml version="1.0" encoding="utf-8"?>
<!-- Generator: Adobe Illustrator 25.0.1, SVG Export Plug-In . SVG Version: 6.00 Build 0)  -->
<svg version="1.1" id="Layer_1" xmlns="http://www.w3.org/2000/svg" xmlns:xlink="http://www.w3.org/1999/xlink" x="0px" y="0px"
	 viewBox="0 0 1024.4 299" style="enable-background:new 0 0 1024.4 299;" xml:space="preserve">
<style type="text/css">
	.st0{fill:#002B69;}
</style>
<g>
	<path class="st0" d="M0,5.2V299h293.8V5.2H0z M83.9,47.5h125.8v41.9l-41.9,41.9V89.4H41.9L83.9,47.5z M125.8,257.1H83.9V131.3h41.9
		v83.9h41.9L125.8,257.1z M251.6,215.2l-41.9,41.9v-83.8h-41.9l41.9-41.9h42.1L251.6,215.2z"/>
	<g>
		<path class="st0" d="M451.6,63.1v-26c-0.1-0.1-0.2-0.2-0.4-0.3h-17.6h-35.3h-11.9v26.2h11.8h41.7H451.6z M398.4,44.3h41.6v11.3
			h-41.6V44.3z"/>
		<path class="st0" d="M426.5,90.4h-20.1H395v31.1l11.5,0h26.2l11.4,0c0-0.2,0-0.5,0-0.8V98.2v-7.6c-0.1-0.1-0.3-0.2-0.5-0.3H426.5z
			 M432.6,113.9h-26.2V97.7h26.2V113.9z"/>
		<path class="st0" d="M639.2,48.8V13.1h-78.8v35.8l11.6-0.1H639.2z M572.5,20.2h54.7v7.1h-54.7V20.2z M572.5,34.5h54.7v7.1h-54.7
			V34.5z"/>
		<path class="st0" d="M643.2,84.7H655V56.5h-97.8h-11.8v28.2l11.8-0.1H643.2z M622.1,63.8h21.1v13.6h-21.1V63.8z M589.6,63.8h21
			v13.6h-21V63.8z M557.1,63.8h21v13.6h-21V63.8z"/>
		<path class="st0" d="M469.4,20.8H463h-33.8h-4.1V1.1l-10.8,3.1c0,6.3,0,11.1,0,16.6h-58.4c0.7,1.6,1.3,2.9,1.8,3.9l1.7,3.7h2.4
			H463h10.5h8l-2.8-7.6H469.4z"/>
		<path class="st0" d="M611.4,120.3c9.1-5.8,18-13,24.3-19.4c0.2-0.2,0.4-0.4,0.5-0.6l-4.1-7.4h-10.6h-12.1h-53.1h-1.2
			c0.6,1.4,1.1,2.6,1.6,3.6l1.7,3.9h2.3h1h10.6c5.7,8.2,12.5,14.7,19.7,20c-16.7,8.3-39.6,14.2-51.7,17l1.1,3.5
			c14.8-1,42.2-5.5,60.1-14.7c17.1,9.2,36.3,12.8,44.7,14c0.7,0.1,1.4,0.2,2,0.3l0,0l3.2,0.5l11.7-10.6l-2.1-0.1
			C642.9,128.8,626.2,126.1,611.4,120.3z M600.6,115.4c-7-3.9-13.9-8.9-19.8-15h39.5C613,107,606.7,111.6,600.6,115.4z"/>
		<path class="st0" d="M454.5,72.9h-76.7h-11.9v69l11.9-6.5l0-54.8h83.8v46.6l0,2.1h-15.3l15.3,11.7h11.9v-11.7V81.3V73c0,0,0,0,0,0
			H454.5z"/>
		<path class="st0" d="M718.2,129l16,11.9l12.4-6.9V72.9c6.6-4.3,12.7-8.5,16.4-11.5c-1.6-3-1.6-3-1.6-3s-6.4,3.5-14.8,7.8V44.5
			h12.3h0.7h3.4v-7.6h-16.4V10.3l-12.4-4.1v0.4v3.7v26.6h-23.2l3.2,7.6h20.1v27.8c-8.3,4-16.7,7.6-21.8,8.9l4.1,10.6
			c0,0,8.1-4.9,17.7-11V129H718.2z"/>
		<path class="st0" d="M758.9,70.3c2.7,2.9,2.7,2.9,2.7,2.9s25.2-12.2,25-29.2V19.5H808v36.1c0,8.4,8.8,8.1,8.8,8.1h23.9l3.5-9.9
			c0,0-12.3,0-18.3,0c-6,0-5.5-4.8-5.5-4.8V11.9h-10.5H808h-0.5h-0.4h-20.5h-4.1h-4.2h-4.1v29.2C773.7,46,771.2,61.6,758.9,70.3z"/>
		<path class="st0" d="M830.4,80.3C830.4,80.3,830.4,80.3,830.4,80.3l-4.2-7.6h-56.8v7.6h44.5h1.8c0,0-5.9,11.4-18.4,24.5
			c-7.2-6-14.3-13.2-20.6-21.9l-4.3,2.4c5.2,8.9,11.6,17.5,19,25.3c-9.6,8.9-22,17.9-37.6,24.2c1.1,4.6,1.1,4.6,1.1,4.6
			s21.8-5.9,43.5-22c11.7,10.6,25.4,19,40.5,23.4l7.8-9.9c0,0-19.5-4.6-40.7-19.5C815.2,103.2,824,93,830.4,80.3z"/>
		<path class="st0" d="M988.2,19.8L982,35.6H978h-8h-3.8l-0.2,74.1h4.1h8h28.2h12l0-71.9l0-2.2h-12h-15l11.2-15.8h18.1l-1.8-7.6
			l-57,0l1.3,7.6H988.2z M1006.1,101.8H978v-14h28.2V101.8z M1006.1,79.9H978v-14h28.2V79.9z M1006.1,58H978V43.5h28.2V58z"/>
		<path class="st0" d="M964.8,136l3.1,4.6c16-8.3,22.9-23.6,22.9-23.6l-9.9-5.2C980.9,111.8,976.8,125.3,964.8,136z"/>
		<path class="st0" d="M909.2,90v-2.1c1-1,2.2-2.4,3.5-4.2v56.9l11.2-4.7v-7.3H963l-1.8-7.6h-16V111h12.4v-7.7h-12.4v-9.9h12.4v-7.7
			h-12.4v-9.4h16l-1.8-7.6h-11.6l-9.8-11l-6.5,3.1l5.7,7.9h-14.8c3.4-5.6,5.9-10.2,5.9-10.2l-9.1-5.8c-3.3,10.6-7.6,21.2-10.2,27.2
			V50.9l50.5,0v-23h0l0,0l-50.5,0v-8.1c36.7-0.3,48.5-5.6,48.5-5.6l-3-8.8c0,0-17.8,6.8-51.6,6.8h-6v86.5c0,6.3-1.1,20.5-7.5,40.3
			l2.6,1.6C892.3,140.7,909.2,116.8,909.2,90z M934.4,121h-10.5V111h10.5V121z M934.4,103.3h-10.5v-9.9h10.5V103.3z M934.4,85.7
			h-10.5v-9.4h10.5V85.7z M947.6,35.6V43h-38.5v-7.4H947.6z"/>
		<path class="st0" d="M996.7,116.3c0,0,12.2,13.3,18.8,24.3c8.9-9.7,8.9-9.7,8.9-9.7s-12.9-13.1-25.2-18.6L996.7,116.3z"/>
	</g>
	<g>
		<polygon class="st0" points="867.8,185.4 854.8,185.4 858.1,188.7 858.1,221.5 854.8,224.8 867.8,224.8 864.5,221.5 864.5,188.7 
					"/>
		<path class="st0" d="M476.1,185.4L476.1,185.4h-1.5l0,0l-15.1,37.5l-2.3,1.9h7.7l-1.7-1.9l3.6-8.9h14.7l3.6,9l-1.2,1.8H494
			l-2.8-1.9L476.1,185.4z M467.8,211.4l6.3-15.5l6.3,15.5H467.8z"/>
		<path class="st0" d="M450.4,205h-6.3v16.6c-16,3.9-23.1-8.7-23.1-16.9c0-8.2,1.4-17.6,14.8-17.6c13.5,0,12.9,8.9,12.9,8.9h1.7
			v-9.9c-28.7-6-36.5,6.6-36.5,18.5c0,11.9,8.4,18.7,19.5,19.9c11.1,1.2,17-2.4,17-2.4v-13.3l3.2-3.9L450.4,205L450.4,205z"/>
		<path class="st0" d="M619.8,185.4L619.8,185.4h-1.5l0,0l-15.1,37.5l-2.3,1.9h7.7l-1.7-1.9l3.6-8.9h14.7l3.6,9l-1.2,1.8h10.2
			l-2.8-1.9L619.8,185.4z M611.5,211.4l6.3-15.5l6.3,15.5H611.5z"/>
		<polygon class="st0" points="536.7,185.4 535.4,185.4 520.9,215.2 506.4,185.4 505,185.4 499.1,222.9 499.1,222.9 496.8,224.8 
			504.5,224.8 503.1,223.2 506.2,198.8 518.8,224.8 519.8,224.8 532.7,198.3 536.1,223.1 535,224.8 545.1,224.8 542.5,223 		"/>
		<polygon class="st0" points="590,185.4 588.7,185.4 574.2,215.2 559.7,185.4 558.3,185.4 552.4,222.9 552.4,222.9 550.1,224.8 
			557.8,224.8 556.4,223.2 559.5,198.8 572.2,224.8 573.1,224.8 586,198.3 589.4,223.1 588.3,224.8 589.7,224.8 596.1,224.8 
			598.4,224.8 595.8,223 		"/>
		<path class="st0" d="M674.5,185.4l-16.6,0l4,4v31.5l-4,3.9h4h0h6.5h0h3.9l-3.9-3.9v-32.6h6.2c4.8,0,9.5,2.8,9.5,10.1
			c0,7.3-4.7,11.2-9.5,11.2v1.5c5.7,0,15.7-3.1,15.7-12.8C690.1,184.7,680.2,185.4,674.5,185.4z"/>
		<path class="st0" d="M826,185.4l-7.8,0.1l-6.4,0h-2.2l2.2,2.2v34.9l-2.2,2.2h4v0h4.6h10.3c0,0,20.1,0.6,20.1-20.2
			C848.5,183.9,826,185.4,826,185.4z M821.6,223.1c-1.2,0-3.5,0-3.5,0v-35.2h3.1c0,0,20.4-1.1,20.4,17.6
			C841.6,224.2,829.4,223.1,821.6,223.1z"/>
		<path class="st0" d="M904.5,205v16.6c-16,3.9-23.1-8.7-23.1-16.9c0-8.2,1.4-17.6,14.8-17.6c13.5,0,12.9,8.9,12.9,8.9h1.6v-9.9
			c-28.7-6-36.5,6.6-36.5,18.5c0,11.9,8.4,18.7,19.5,19.9c11.1,1.2,17-2.4,17-2.4v-13.3l3.2-3.9L904.5,205z"/>
		<path class="st0" d="M708.3,185.4L708.3,185.4h-1.5l0,0l-15.1,37.5l-2.3,1.9h7.7l-1.7-1.9l3.6-8.9h14.7l3.6,9l-1.2,1.8h10.2
			l-2.8-1.9L708.3,185.4z M700,211.4l6.3-15.5l6.3,15.5H700z"/>
		<path class="st0" d="M787.2,185.4L787.2,185.4h-1.5l0,0l-15.1,37.5l-2.3,1.9h7.7l-1.7-1.9l3.6-8.9h14.7l3.6,9l-1.2,1.8h10.2
			l-2.8-1.9L787.2,185.4z M778.9,211.4l6.3-15.5l6.3,15.5H778.9z"/>
		<polygon class="st0" points="957.4,185.4 956,185.4 941.5,215.1 927,185.4 925.6,185.4 919.7,222.9 919.7,222.9 917.4,224.8 
			919.4,224.8 923.5,224.8 925.1,224.8 923.7,223.2 926.9,198.8 939.5,224.8 940.5,224.8 953.3,198.3 956.8,223 955.6,224.8 
			957,224.8 963.4,224.8 965.8,224.8 963.1,223 		"/>
		<path class="st0" d="M760.1,196.2c0-8.8-6.4-10.8-13.9-10.8h-12.9v0h-4l3.7,3.7V223l-2.3,1.9h10.2l-1.7-1.9v-14.2l6.9,0l11.4,16
			l7.3,0l-12.4-16.3C756.1,207.1,760.1,204.3,760.1,196.2z M746.3,206.4l-6.9,0v-2.1v-16.5h6.9c0,0,8,0,8,9.3
			C754.3,206.4,746.3,206.4,746.3,206.4z"/>
	</g>
	<g>
		<polygon class="st0" points="686.3,255.8 673.3,255.8 676.6,259.1 676.6,292.2 673.3,295.5 686.3,295.5 683,292.1 683,259.1 		"/>
		<polygon class="st0" points="826.4,278 839.4,258.6 844.2,255.8 834.7,255.8 836.8,258.6 826.5,273.7 815.1,257.8 818,255.8 
			803.4,255.8 807.9,258.8 820,276.6 820,292.3 816.9,295.5 829.8,295.5 826.4,292.1 		"/>
		<path class="st0" d="M606.6,255.9l-7.9,0.1l-6.4,0v0h-2.2l2.2,2.2v35l-2.2,2.3h4v0h4.7v0h10.4c0,0,20.2,0.6,20.2-20.3
			S606.6,255.9,606.6,255.9z M602.2,293.7c-1.2,0-3.5,0-3.5,0v-35.4h3.1c0,0,20.5-1.1,20.5,17.7S610,293.7,602.2,293.7z"/>
		<path class="st0" d="M567.8,255.8L567.8,255.8h-1.5l0,0l-15.2,37.6l-2.3,1.9h7.8l-1.7-1.9l0,0l3.6-8.9h14.7l3.7,9.1l-1.2,1.8h10.2
			l-2.8-1.9L567.8,255.8z M559.4,281.9l6.3-15.6l6.3,15.6H559.4z"/>
		<path class="st0" d="M801.5,266.6c0-8.8-6.5-10.8-13.9-10.8h-13v0h-4l3.7,3.7v34l-2.3,1.9h10.3l-1.7-1.9h0v-14.2l6.9,0l11.5,16.1
			l7.3,0l-12.5-16.4C797.5,277.6,801.5,274.8,801.5,266.6z M787.5,276.9l-6.9,0v-18.7h6.9c0,0,8.1,0,8.1,9.3
			S787.5,276.9,787.5,276.9z"/>
		<path class="st0" d="M709.4,272.2l-1.8-1.1c-5.5-3.3-7-5.1-7-7.5c0-3.1,3-5.4,7.8-5.4c0.3,0,0.5,0,0.8,0c0,0,1,0,2.4,0.2
			c1.6,0.2,3,1,4.1,2.1l1.8,1.8v-1.6v0l0-2.4h0v-1.8c-0.6-0.1-1.3-0.2-2.1-0.3c-1.6-0.2-3.6-0.4-6.1-0.4c-9.2,0-15.2,4.1-15.2,9.9
			c0,4.2,2.5,7.4,9.7,11.9l3,1.9c5.5,3.4,6.5,6.3,6.5,8.9c0,2.8-2.9,5.1-8.8,5.1c0,0-1-0.1-2.4-0.4c-1.4-0.3-2.6-1.1-3.6-2.1
			l-2.6-2.7v1l0,0v5c4.5,2.8,14.9,2.1,18.2,0.4c4.7-2.5,6.2-6.1,6.2-9.1C720.2,280.6,717.4,277,709.4,272.2z"/>
		<polygon class="st0" points="660.1,255.8 662.7,259.2 651.3,287.4 640,258.2 643.4,255.8 628.8,255.8 632.7,259.1 647.6,295.5 
			650.6,295.5 665.2,259.3 669.6,255.8 		"/>
		<path class="st0" d="M745.6,255.9c-11.9,0-21.5,8.9-21.5,19.9c0,11,9.6,19.9,21.5,19.9s21.5-8.9,21.5-19.9
			C767.1,264.8,757.4,255.9,745.6,255.9z M745.1,293.6c-7.7,0-13.9-8-13.9-17.8c0-9.8,6.2-17.8,13.9-17.8c7.7,0,13.9,8,13.9,17.8
			C759.1,285.6,752.8,293.6,745.1,293.6z"/>
	</g>
</g>
</svg>
